# xmcd
#
# Track frame offsets:
#	150
#	17412
#	33430
#	49765
#	64695
#	78435
#	90872
#	108667
#	125647
#	138362
#	149842
#	161265
#	174172
#	191600
#
# Disc length: 2791 seconds
#
# Revision: 1
# Processed by: cddbd v1.4PL0 Copyright (c) Steve Scherf et al.
# Submitted via: audiograbber 1.80
#
DISCID=b40ae50e
DTITLE=Daniel O'Donnell and Mary Duff - Timeless
DYEAR=1900
DGENRE=
TTITLE0=Timeless
TTITLE1=We believe in happy endings
TTITLE2=I won't take less than your love
TTITLE3=Whispering hope
TTITLE4=Have you ever been lonely
TTITLE5=I heard the bluebird sing
TTITLE6=Eileen McManus
TTITLE7=Secret love
TTITLE8=Vaya Con Dios
TTITLE9=Walk right back
TTITLE10=Just someone I used to know
TTITLE11=Jeannie's afraid of the dark
TTITLE12=Somewhere between
TTITLE13=Will the circle be unbroken
EXTD=CD was included in with the Daniel O'Donnell Limited Edition 1998 Australi
EXTD=a and New Zealand Tour Souvenir.
EXTT0=
EXTT1=
EXTT2=
EXTT3=
EXTT4=
EXTT5=
EXTT6=
EXTT7=
EXTT8=
EXTT9=
EXTT10=
EXTT11=
EXTT12=
EXTT13=
PLAYORDER=
